<?xml version="1.0" encoding="utf-8"?>
<!-- Generator: Adobe Illustrator 23.1.1, SVG Export Plug-In . SVG Version: 6.00 Build 0)  -->
<svg version="1.1" id="Layer_1" xmlns="http://www.w3.org/2000/svg" xmlns:xlink="http://www.w3.org/1999/xlink" x="0px" y="0px"
	 viewBox="0 0 15 15" style="enable-background:new 0 0 15 15;" xml:space="preserve">
<style type="text/css">
	.st0{fill:#2A2A2A;}
	.st1{fill:#FFFFFF;}
</style>
<g>
	<circle class="st0" cx="7.5" cy="7.5" r="7.5"/>
</g>
<g>
	<path class="st1" d="M8.4,9.6h1.3c0.3,0,0.5,0,0.6,0.1s0.2,0.3,0.2,0.5s-0.1,0.4-0.2,0.5s-0.3,0.2-0.6,0.2h-4
		c-0.3,0-0.5-0.1-0.6-0.2S5,10.5,5,10.3C5,10,5,9.9,5.1,9.8s0.3-0.1,0.6-0.1H7V6.8H6.3c-0.3,0-0.4,0-0.6-0.1S5.6,6.4,5.6,6.1
		s0.1-0.4,0.2-0.5S6,5.5,6.3,5.5h1.8c0.1,0,0.2,0,0.3,0.1s0.1,0.1,0.1,0.2v3.8H8.4z M7.6,2.9c0.3,0,0.4,0,0.5,0.1s0.1,0.4,0.1,0.8
		s0,0.6-0.1,0.7S7.9,4.7,7.6,4.7S7.1,4.7,7,4.6S6.8,4.3,6.8,4c0-0.5,0-0.8,0.1-1C7.1,2.9,7.3,2.9,7.6,2.9z"/>
</g>
</svg>
