<?xml version="1.0" encoding="utf-8"?>
<!-- Generator: Adobe Illustrator 23.1.1, SVG Export Plug-In . SVG Version: 6.00 Build 0)  -->
<svg version="1.1" id="Layer_1" xmlns="http://www.w3.org/2000/svg" xmlns:xlink="http://www.w3.org/1999/xlink" x="0px" y="0px"
	 viewBox="0 0 264.1 51.3" style="enable-background:new 0 0 264.1 51.3;" xml:space="preserve">
<g>
	<path d="M0,42.8l7.2-5.4c1.7,3.2,4.1,4.7,6.5,4.7c3.8,0,5.8-1.9,5.8-8.2V3.5h10.6v31.3c0,9-4.7,16.5-15.1,16.5
		C8,51.3,3.3,48.5,0,42.8z"/>
	<path d="M36.6,32.6c0-11.9,8.4-18.7,17.4-18.7s17.4,6.9,17.4,18.7c0,11.9-8.4,18.7-17.4,18.7S36.6,44.4,36.6,32.6z M60.6,32.6
		c0-6.2-2.2-10.2-6.6-10.2s-6.6,4-6.6,10.2s2.2,10.2,6.6,10.2S60.6,38.8,60.6,32.6z"/>
	<path d="M77,36.9V14.7h10.6v20.8c0,5.1,1.4,6.7,4.4,6.7c2.7,0,4.3-1.1,6.4-3.9V14.7H109v35.7h-8.6l-0.8-5h-0.3
		c-3,3.6-6.3,5.8-11.2,5.8C80.3,51.3,77,45.8,77,36.9z"/>
	<path d="M116,14.7h8.6l0.8,6.2h0.3c2.6-4.8,6.5-7.1,10.1-7.1c2,0,3.2,0.3,4.3,0.7l-1.8,9.1c-1.3-0.3-2.3-0.6-3.9-0.6
		c-2.7,0-6,1.7-7.9,6.6v20.7H116V14.7z"/>
	<path d="M144.5,14.7h8.6l0.8,4.5h0.3c3-2.9,6.6-5.4,11.5-5.4c7.8,0,11.1,5.5,11.1,14.4v22.2h-10.6V29.6c0-5.1-1.4-6.7-4.4-6.7
		c-2.7,0-4.3,1.2-6.6,3.5v24.1h-10.6V14.7H144.5z"/>
	<path d="M181.8,40.5c0-7.5,6-11.6,20.1-13.1c-0.2-3.1-1.8-5.2-5.6-5.2c-3,0-6,1.3-9.5,3.2l-3.8-6.9c4.5-2.8,9.6-4.7,15.3-4.7
		c9.1,0,14.2,5.2,14.2,16.2v20.4h-8.6l-0.8-3.7h-0.3c-3,2.6-6.4,4.5-10.4,4.5C185.9,51.3,181.8,46.6,181.8,40.5z M201.9,40.1v-6.2
		c-7.5,1-10,3.2-10,5.9c0,2.3,1.6,3.4,4.1,3.4C198.4,43.1,200,41.9,201.9,40.1z"/>
	<path d="M219.5,39.3V0h10.6v39.8c0,2.3,1.1,3,1.9,3c0.4,0,0.7,0,1.3-0.1l1.3,7.8c-1.2,0.5-2.9,0.9-5.3,0.9
		C222,51.3,219.5,46.6,219.5,39.3z"/>
	<path d="M235.7,46.3l4.8-6.6c3.2,2.4,6.2,3.8,9.2,3.8c3.2,0,4.5-1.2,4.5-3.1c0-2.4-3.5-3.4-7.2-4.9c-4.4-1.7-9.5-4.6-9.5-10.5
		c0-6.7,5.4-11.2,13.6-11.2c5.5,0,9.5,2.2,12.6,4.5l-4.7,6.4c-2.5-1.8-5-3-7.5-3c-2.7,0-4.1,1.1-4.1,2.9c0,2.3,3.3,3.1,7,4.5
		c4.5,1.7,9.6,4.2,9.6,10.8c0,6.5-5.1,11.5-14.7,11.5C244.7,51.3,239.3,49.3,235.7,46.3z"/>
</g>
</svg>
